<svg width="20" height="20" viewBox="0 0 20 20" fill="none" xmlns="http://www.w3.org/2000/svg">
<path d="M4.4478 18.5417C4.49421 18.9534 4.70713 19.3332 5.04329 19.6039C5.37946 19.8746 5.81364 20.0159 6.25762 19.9991H13.9877C14.4398 20.0159 14.8817 19.8715 15.2236 19.5955C15.5656 19.3194 15.7817 18.9324 15.8282 18.5131L17.0858 6.28223H2.91406L4.4478 18.5417Z" fill="white"/>
<path d="M19.3865 2.57219H13.681V1.65773C13.6894 1.44039 13.6501 1.22374 13.5656 1.021C13.4811 0.818272 13.3531 0.633714 13.1895 0.4786C13.0258 0.323486 12.83 0.201071 12.6139 0.118831C12.3978 0.0365903 12.1659 -0.00374975 11.9325 0.000273933H8.06749C7.83408 -0.00374975 7.60224 0.0365903 7.38612 0.118831C7.17001 0.201071 6.97416 0.323486 6.81053 0.4786C6.64689 0.633714 6.51892 0.818272 6.43441 1.021C6.3499 1.22374 6.31064 1.44039 6.31902 1.65773V2.57219H0.613497C0.450787 2.57219 0.294742 2.6324 0.179689 2.73959C0.0646362 2.84677 0 2.99214 0 3.14372C0 3.29531 0.0646362 3.44068 0.179689 3.54786C0.294742 3.65505 0.450787 3.71526 0.613497 3.71526H19.3865C19.5492 3.71526 19.7053 3.65505 19.8203 3.54786C19.9354 3.44068 20 3.29531 20 3.14372C20 2.99214 19.9354 2.84677 19.8203 2.73959C19.7053 2.6324 19.5492 2.57219 19.3865 2.57219ZM12.454 2.57219H7.54601V1.65773C7.53675 1.59059 7.5436 1.52237 7.56608 1.458C7.58856 1.39362 7.6261 1.3347 7.67599 1.28549C7.72588 1.23627 7.78688 1.198 7.85458 1.17341C7.92229 1.14883 7.995 1.13856 8.06749 1.14335H11.9325C12.005 1.13856 12.0777 1.14883 12.1454 1.17341C12.2131 1.198 12.2741 1.23627 12.324 1.28549C12.3739 1.3347 12.4114 1.39362 12.4339 1.458C12.4564 1.52237 12.4633 1.59059 12.454 1.65773V2.57219Z" fill="white"/>
</svg>
