<svg width="20" height="20" viewBox="0 0 20 20" fill="none" xmlns="http://www.w3.org/2000/svg">
<rect width="20" height="20" fill="white"/>
<path d="M9.43624 12.5975C10.0112 12.825 10.5362 13.1275 11.0087 13.5038C11.4812 13.8788 11.885 14.3162 12.2212 14.8112C12.907 15.8101 13.2764 16.9922 13.2812 18.2038V18.75H12.1875V18.2025C12.1898 17.556 12.0634 16.9156 11.8155 16.3185C11.5676 15.7214 11.2033 15.1797 10.7437 14.725C10.2927 14.2804 9.76228 13.9242 9.17999 13.675C8.57481 13.4157 7.92337 13.2818 7.26499 13.2812C6.61852 13.2789 5.97805 13.4054 5.38098 13.6533C4.78392 13.9011 4.24221 14.2655 3.78749 14.725C3.34298 15.1762 2.98685 15.7065 2.73749 16.2887C2.47999 16.8813 2.34999 17.52 2.34374 18.2025V18.75H1.24999V18.2025C1.24679 16.9901 1.61688 15.806 2.30999 14.8112C3.00036 13.8152 3.96971 13.0455 5.09624 12.5988C4.84032 12.4229 4.60728 12.2159 4.40249 11.9825C4.20013 11.7527 4.0252 11.5002 3.88124 11.23C3.73784 10.96 3.62867 10.6732 3.55624 10.3762C3.48238 10.0737 3.44255 9.76388 3.43749 9.4525C3.43749 8.92375 3.53749 8.4275 3.73749 7.96625C4.12856 7.0524 4.85638 6.32413 5.76999 5.9325C6.24133 5.73185 6.74809 5.62771 7.26035 5.6262C7.77262 5.6247 8.27999 5.72587 8.75249 5.92375C9.66657 6.31512 10.3949 7.04342 10.7862 7.9575C11.1099 8.71863 11.1788 9.56403 10.9825 10.3675C10.9075 10.6637 10.7975 10.9487 10.65 11.2225C10.5034 11.4934 10.3287 11.7482 10.1287 11.9825C9.92874 12.2163 9.69749 12.42 9.43624 12.5975ZM7.26499 12.1875C7.64124 12.1875 7.99499 12.1163 8.32499 11.975C8.97927 11.697 9.50004 11.1758 9.77749 10.5212C9.92624 10.185 9.99999 9.82875 9.99999 9.45375C10.0016 9.09581 9.93127 8.74119 9.7932 8.41094C9.65514 8.08069 9.45213 7.78154 9.19624 7.53125C8.94313 7.28444 8.64812 7.08466 8.32499 6.94125C7.99157 6.79233 7.63015 6.71647 7.26499 6.71875C6.88999 6.71875 6.53624 6.79 6.20624 6.93125C5.54835 7.21186 5.02435 7.73586 4.74374 8.39375C4.60249 8.72375 4.53124 9.0775 4.53124 9.45375C4.53124 9.82875 4.60249 10.1825 4.74374 10.5125C4.88749 10.8425 5.08124 11.1337 5.32624 11.3838C5.57987 11.64 5.8821 11.8432 6.21523 11.9812C6.54835 12.1192 6.90566 12.1893 7.26624 12.1875H7.26499ZM18.75 1.25V10H16.5625L13.2812 13.2812V10H12.1875V8.90625H14.375V10.6412L16.11 8.90625H17.6562V2.34375H6.71874V4.30875C6.5354 4.33192 6.35282 4.36068 6.17124 4.395C5.98505 4.43035 5.80228 4.48179 5.62499 4.54875V1.25H18.75Z" fill="#26993F"/>
</svg>
