<svg width="35" height="34" viewBox="0 0 35 34" fill="none" xmlns="http://www.w3.org/2000/svg">
<path fill-rule="evenodd" clip-rule="evenodd" d="M9.5285 14.6939L20.4507 8.85815C20.9156 8.60978 21.5003 8.60978 21.9652 8.85815L32.8874 14.6939C33.7508 15.1551 34.2773 15.9759 34.2773 16.8605V28.1326C34.2773 29.535 32.977 30.6719 31.373 30.6719L11.0429 30.6719C9.43892 30.6719 8.13863 29.535 8.13863 28.1327L8.13865 16.8605C8.13865 15.9759 8.66519 15.1551 9.5285 14.6939ZM18.3037 20.5161C17.5017 20.5161 16.8516 21.0845 16.8516 21.7857V25.5946C16.8516 26.2958 17.5017 26.8642 18.3037 26.8642H24.1123C24.9143 26.8642 25.5645 26.2958 25.5645 25.5946V21.7857C25.5645 21.0845 24.9143 20.5161 24.1123 20.5161H18.3037Z" fill="#042D0D"/>
</svg>
