<svg width="21" height="21" viewBox="0 0 21 21" fill="none" xmlns="http://www.w3.org/2000/svg">
<line x1="0.219025" y1="20" x2="12.7192" y2="20" stroke="#FD0000" stroke-width="2"/>
<line y1="1.75" x2="12.5001" y2="1.75" stroke="#FD0000" stroke-width="2"/>
<line y1="-1" x2="20.001" y2="-1" transform="matrix(0.00579595 0.999983 -0.999908 0.0135495 0 1)" stroke="#FD0000" stroke-width="2"/>
<path d="M20.7071 11.5318C21.0976 11.1413 21.0976 10.5081 20.7071 10.1176L14.3431 3.75364C13.9526 3.36311 13.3194 3.36311 12.9289 3.75364C12.5384 4.14416 12.5384 4.77733 12.9289 5.16785L18.5858 10.8247L12.9289 16.4816C12.5384 16.8721 12.5384 17.5053 12.9289 17.8958C13.3194 18.2863 13.9526 18.2863 14.3431 17.8958L20.7071 11.5318ZM7.06125 11.8247H20V9.82471H7.06125V11.8247Z" fill="#FD0000"/>
</svg>
