<svg width="270" height="572" viewBox="0 0 270 572" fill="none" xmlns="http://www.w3.org/2000/svg">
<mask id="mask0_7_31" style="mask-type:luminance" maskUnits="userSpaceOnUse" x="0" y="0" width="270" height="572">
<path d="M0 0H269.354V572H0V0Z" fill="white"/>
</mask>
<g mask="url(#mask0_7_31)">
<path fill-rule="evenodd" clip-rule="evenodd" d="M104.852 389.425C105.224 386.439 105.578 383.411 105.928 380.346H112.307L112.289 380.447C112.039 383.456 111.793 386.439 111.525 389.425H104.852ZM100.558 418.919C101.385 413.821 102.208 408.555 103.016 403.085C103.593 399.104 104.152 395.023 104.688 390.815H111.398C110.512 400.452 109.563 409.863 108.527 418.919H100.558ZM98.8636 428.788C99.3589 426.032 99.8356 423.213 100.309 420.331H108.363C108.032 423.191 107.682 426.01 107.332 428.788H98.8636ZM92.7489 457.995C94.8567 449.411 96.7968 440.187 98.5955 430.199H107.146C105.887 440.086 104.483 449.433 102.975 457.995H92.7489ZM89.9224 468.463C90.7678 465.499 91.6168 462.534 92.3988 459.402H102.725C102.148 462.534 101.567 465.558 100.971 468.463H89.9224ZM87.3603 477.832C88.0604 475.054 88.7866 472.444 89.5277 469.87H100.681C99.8766 473.643 99.0275 477.229 98.1598 480.566C94.3204 479.303 90.7044 478.432 87.3603 477.832ZM114.869 469.87C114.355 474.038 113.815 478.1 113.257 482.018C111.648 482.763 110.036 483.593 108.445 484.547C105.328 483.158 102.334 481.977 99.4818 481.001C100.39 477.542 101.258 473.81 102.085 469.87H114.869ZM118.753 430.199C118.009 439.859 117.163 449.165 116.232 457.995H104.379C105.906 449.411 107.291 440.086 108.55 430.199H118.753ZM121.312 390.815C120.798 400.389 120.221 409.799 119.599 418.919H109.935C110.966 409.863 111.916 400.452 112.784 390.815H121.312ZM115.942 327.157C114.996 344.34 113.815 361.876 112.411 378.957H106.092C107.891 362.561 109.354 344.961 110.553 327.157H115.942ZM123.915 327.157C123.378 344.567 122.738 361.98 121.911 378.957H113.815C115.219 361.876 116.377 344.34 117.349 327.157H123.915ZM118.69 265.384C118.072 283.501 117.245 303.652 116.109 324.398H110.739C110.966 320.648 111.216 316.916 111.421 313.166C112.307 298.405 113.361 282.012 114.21 265.384H118.69ZM114.478 180.709C116.523 182.578 120.053 186.328 120.239 190.015C120.343 191.966 120.135 221.46 118.813 261.82H114.374C115.428 240.221 116.068 218.395 115.364 199.321C115.283 197.023 115.055 194.763 114.579 192.57C114.124 190.451 112.266 187.944 110.739 185.58C109.767 184.068 109.004 182.429 108.427 180.709H114.478ZM164.498 389.425C164.148 386.439 163.776 383.411 163.445 380.346H157.062V380.447C157.311 383.456 157.579 386.439 157.847 389.425H164.498ZM168.814 418.919C167.969 413.821 167.161 408.555 166.357 403.085C165.757 399.104 165.221 395.023 164.685 390.815H157.97C158.838 400.452 159.791 409.863 160.841 418.919H168.814ZM170.509 428.788C170.014 426.032 169.518 423.213 169.042 420.331H161.009C161.337 423.191 161.691 426.01 162.041 428.788H170.509ZM176.62 457.995C174.493 449.411 172.572 440.187 170.755 430.199H162.204C163.485 440.086 164.871 449.433 166.398 457.995H176.62ZM179.45 468.463C178.605 465.499 177.759 462.534 176.951 459.402H166.647C167.202 462.534 167.802 465.558 168.401 468.463H179.45ZM182.012 477.832C181.308 475.054 180.567 472.444 179.845 469.87H168.692C169.496 473.643 170.323 477.229 171.19 480.566C175.052 479.303 178.646 478.432 182.012 477.832ZM154.481 469.87C154.999 474.038 155.535 478.1 156.093 482.018C157.702 482.763 159.315 483.593 160.923 484.547C164.044 483.158 167.016 481.977 169.868 481.001C168.978 477.542 168.111 473.81 167.265 469.87H154.481ZM150.601 430.199C151.364 439.859 152.209 449.165 153.14 457.995H164.975C163.467 449.411 162.082 440.086 160.801 430.199H150.601ZM148.057 390.815C148.575 400.389 149.133 409.799 149.774 418.919H159.438C158.406 409.863 157.434 400.452 156.566 390.815H148.057ZM136.081 477.188V469.87H133.269V477.188C133.746 477.166 134.2 477.166 134.655 477.147H134.718C135.172 477.166 135.627 477.166 136.081 477.188ZM153.408 327.157C154.377 344.34 155.535 361.876 156.939 378.957H163.281C161.463 362.561 160.018 344.961 158.819 327.157H153.408ZM145.435 327.157C145.972 344.567 146.635 361.98 147.461 378.957H155.557C154.15 361.876 152.973 344.34 152.023 327.157H145.435ZM150.66 265.384C151.282 283.501 152.127 303.652 153.263 324.398H158.633C158.384 320.648 158.156 316.916 157.929 313.166C157.062 298.405 155.989 282.012 155.162 265.384H150.66ZM154.894 180.709C152.85 182.578 149.32 186.328 149.111 190.015C149.007 191.966 149.215 221.46 150.556 261.82H154.976C153.922 240.221 153.304 218.395 153.986 199.321C154.068 197.023 154.317 194.763 154.771 192.57C155.226 190.451 157.084 187.944 158.611 185.58C159.583 184.068 160.346 182.429 160.946 180.709H154.894ZM136.081 389.425H156.443C156.175 386.48 155.926 383.538 155.68 380.551L155.658 380.346H113.692L113.674 380.551C113.424 383.538 113.175 386.48 112.907 389.425H136.081ZM136.081 428.788H160.637C160.287 426.01 159.933 423.191 159.605 420.331H109.767C109.44 423.191 109.086 426.01 108.736 428.788H136.081ZM136.081 468.463H166.975C166.375 465.558 165.798 462.534 165.243 459.402H104.129C103.574 462.534 102.994 465.558 102.375 468.463H136.081ZM134.677 324.398H136.081V327.157H133.269V324.398H134.677ZM134.677 261.82H136.081V265.384H133.269V261.82H134.677ZM134.677 378.957H136.081V327.157H145.354V324.398H151.878C150.742 303.652 149.897 283.501 149.279 265.384H143.909C144.3 284.559 144.754 304.46 145.354 324.398H136.081V265.384H143.823V261.82H149.152C147.83 221.423 147.625 191.903 147.729 189.955C147.916 186.41 150.723 182.906 152.891 180.709H142.214C142.791 204.177 143.227 232.077 143.823 261.82H136.081V180.709H133.269V261.82H125.527C126.127 232.077 126.581 204.177 127.158 180.709H116.459C118.649 182.906 121.438 186.41 121.624 189.955C121.725 191.903 121.539 221.423 120.198 261.82H125.527V265.384H133.269V324.398H123.997C124.619 304.46 125.073 284.559 125.464 265.384H120.075C119.476 283.501 118.63 303.652 117.495 324.398H123.997V327.157H133.269V378.957H134.677ZM134.677 418.919H136.081V390.815H133.269V418.919H134.677ZM134.677 457.995H136.081V430.199H133.269V457.995H134.677ZM69.7832 531.022C71.1462 525.216 68.5879 523.145 64.3128 526.396C62.9274 527.454 61.5645 529.174 60.2648 531.081C58.9205 533.032 57.6618 535.271 56.4031 537.155C48.0167 549.757 36.9268 560.56 24.1424 568.559C22.1389 569.825 20.0945 570.965 17.9867 572H0V563.751C42.6058 560.765 83.1485 498.374 36.8039 484.692C34.037 483.884 31.2664 483.552 28.8718 483.988C28.7676 484.007 28.667 484.029 28.6037 484.048C28.5404 483.906 28.5218 483.738 28.5218 483.593C28.4808 481.85 30.1305 480.67 31.9069 480.093C38.0812 477.996 49.9979 481.087 55.6806 483.426C57.5985 484.215 59.4791 485.209 61.0506 486.122C68.0926 490.248 73.4402 496.467 74.8665 505.773C75.9799 513.027 74.4717 521.071 71.1053 528.389C70.6919 529.279 70.2376 530.15 69.7832 531.022ZM104.211 572H98.5732C103.489 560.579 106.029 550.587 106.155 542.711C106.442 521.734 89.3824 519.474 78.7878 534.876C72.0549 544.659 66.7482 554.505 58.9614 563.751C56.0716 567.192 53.2005 570.425 51.5061 572H30.812C31.1844 571.75 31.5792 571.501 31.9702 571.233C48.2848 560.601 69.0608 541.78 74.8255 522.479C76.5162 516.822 77.0748 510.998 76.248 505.565C75.466 500.466 73.4402 495.7 69.9285 491.76C64.2904 485.437 56.9803 482.93 57.1441 482.826C62.9684 479.758 79.864 473.684 107.95 486.371C108.073 486.744 108.177 487.116 108.3 487.488C111.525 497.357 112.661 514.416 111.834 531.167C111.048 547.377 108.468 563.252 104.211 572ZM199.586 531.022C198.204 525.216 200.785 523.145 205.06 526.396C206.441 527.454 207.808 529.174 209.108 531.081C210.452 533.032 211.711 535.271 212.969 537.155C221.333 549.757 232.446 560.56 245.23 568.559C247.234 569.825 249.278 570.965 251.363 572H269.354V563.751C226.767 560.765 186.205 498.374 232.569 484.692C235.336 483.884 238.102 483.552 240.501 483.988C240.605 484.007 240.687 484.029 240.769 484.048C240.81 483.906 240.832 483.738 240.832 483.593C240.873 481.85 239.22 480.67 237.443 480.093C231.269 477.996 219.352 481.087 213.692 483.426C211.774 484.215 209.871 485.209 208.322 486.122C201.261 490.248 195.91 496.467 194.487 505.773C193.37 513.027 194.878 521.071 198.264 528.389C198.681 529.279 199.113 530.15 199.586 531.022ZM165.158 572H170.796C165.861 560.579 163.322 550.587 163.217 542.711C162.927 521.734 179.968 519.474 190.562 534.876C197.314 544.659 202.624 554.505 210.407 563.751C213.279 567.192 216.172 570.425 217.866 572H238.557C238.166 571.75 237.775 571.501 237.38 571.233C221.088 560.601 200.308 541.78 194.547 522.479C192.853 516.822 192.275 510.998 193.102 505.565C193.888 500.466 195.932 495.7 199.422 491.76C205.06 485.437 212.392 482.93 212.206 482.826C206.404 479.758 189.486 473.684 161.422 486.371C161.296 486.744 161.173 487.116 161.069 487.488C157.829 497.357 156.712 514.416 157.52 531.167C158.302 547.377 160.905 563.252 165.139 572H165.158ZM134.677 479.013C126.767 479.136 118.031 481.024 109.354 486.185C109.44 486.476 109.522 486.766 109.622 487.053C112.907 497.066 114.042 514.334 113.238 531.226C112.452 547.251 109.913 562.984 105.76 572H111.875C112.434 570.257 112.761 568.06 113.175 566.176C114.933 557.968 115.364 549.507 117.018 541.322C119.312 529.942 126.994 524.281 134.677 524.263C142.359 524.281 150.061 529.942 152.355 541.322C154.008 549.507 154.44 557.968 156.198 566.176C156.589 568.06 156.939 570.257 157.497 572H163.608C159.46 562.984 156.92 547.251 156.134 531.226C155.308 514.334 156.462 497.066 159.728 487.053C159.832 486.766 159.914 486.476 160.018 486.185C151.323 481.024 142.587 479.136 134.677 479.013ZM151.364 152.086H146.653V164.48H143.473V152.086H136.803V164.48H132.547V152.086H125.9V164.48H122.719V152.086H117.99V164.48H115.219V114.236H117.99V130.566H122.719V114.236H125.9V130.566H132.547V114.236H136.803V130.566H143.473V114.236H146.653V130.566H151.364V114.236H154.15V164.48H151.364V152.086ZM146.653 148.828H151.364V133.843H146.653V148.828ZM136.803 148.828H143.473V133.843H136.803V148.828ZM125.9 148.828H132.547V133.843H125.9V148.828ZM117.99 148.828H122.719V133.843H117.99V148.828ZM112.37 98.562H157.002V112.367H112.37V98.562ZM132.528 64.6703H136.844V55.3045C136.844 54.124 135.872 53.126 134.677 53.126C133.5 53.126 132.528 54.124 132.528 55.3045V64.6703ZM142.006 64.6703V55.3455C142.006 53.3345 141.183 51.4912 139.861 50.1654C138.516 48.836 136.699 48.0055 134.677 48.0055C132.673 48.0055 130.834 48.836 129.512 50.1654C128.19 51.4912 127.363 53.3345 127.363 55.3455V64.6703H128.976V55.3455C128.976 53.7665 129.616 52.3402 130.648 51.305C131.683 50.266 133.105 49.6255 134.677 49.6255C136.245 49.6255 137.671 50.266 138.703 51.305C139.734 52.3402 140.375 53.7665 140.375 55.3455V64.6703H142.006ZM147.748 45.0003V96.5324H142.006V68.5506H140.375V96.5324H136.844V68.5506H132.528V96.5324H128.976V68.5506H127.363V96.5324H121.602V45.0003H147.748ZM123.874 37.936H145.499V43.6113H123.874V37.936ZM134.677 0L135.109 12.0656L135.5 23.6732C138.87 24.5223 144.177 26.2427 144.177 29.4937V36.5655H125.196V29.4937C125.196 26.2427 130.502 24.5223 133.85 23.6732L134.264 12.0656L134.677 0ZM107.95 166.74H163.281V178.407H106.092V166.74H107.95Z" fill="#CCCCC9"/>
</g>
</svg>
