<svg width="252" height="252" viewBox="0 0 252 252" fill="none" xmlns="http://www.w3.org/2000/svg">
<mask id="mask0_102_985" style="mask-type:luminance" maskUnits="userSpaceOnUse" x="47" y="47" width="158" height="158">
<path d="M47.7307 47.7307H204.286V204.286H47.7307V47.7307Z" fill="white"/>
</mask>
<g mask="url(#mask0_102_985)">
<path d="M204.317 126.035C204.317 169.268 169.268 204.317 126.035 204.317C82.8025 204.317 47.7522 169.268 47.7522 126.035C47.7555 82.8025 82.8025 47.7522 126.035 47.7522C169.268 47.7522 204.317 82.8025 204.317 126.035Z" fill="#353434"/>
</g>
<path d="M126.056 52.9216H126.013C85.6406 52.9315 52.9233 85.6603 52.9233 126.033C52.9216 166.407 85.6406 199.134 126.013 199.146H126.056C166.423 199.134 199.152 166.407 199.152 126.033C199.152 85.6603 166.423 52.9331 126.056 52.9216Z" fill="#1D5F30"/>
<path d="M179.852 120.848L181.78 121.132L191.395 122.565L183.164 114.16L188.24 103.607L177.588 108.468L169.352 100.063L170.589 109.71L170.832 111.638L159.21 118.42L170.953 120.542L172.833 132.328L179.852 120.848Z" fill="white"/>
<path d="M169.189 156.955C145.323 156.955 125.977 137.609 125.977 113.745C125.977 102.48 130.29 92.2228 137.347 84.5349C121.864 91.1056 111.011 106.445 111.011 124.323C111.011 148.194 130.357 167.536 154.224 167.536C166.824 167.536 178.167 162.138 186.067 153.533C180.879 155.735 175.176 156.955 169.189 156.955Z" fill="white"/>
<path d="M90.09 62.3569C67.8989 74.9077 52.9216 98.7197 52.9216 126.033C52.9216 153.348 67.8989 177.16 90.09 189.707V62.3569Z" fill="white"/>
<path d="M129.194 199.083C129.204 199.083 129.211 199.083 129.221 199.078C129.216 199.078 129.199 199.083 129.194 199.083ZM131.01 198.983C131.01 198.978 131.022 198.978 131.027 198.978C131.022 198.978 131.015 198.978 131.01 198.983ZM131.184 198.972C131.189 198.972 131.196 198.967 131.201 198.967C131.196 198.967 131.189 198.967 131.184 198.972ZM132.001 198.909C132.006 198.909 132.006 198.909 132.011 198.904C132.011 198.909 132.001 198.909 132.001 198.909Z" fill="#282B2C"/>
<path d="M126.034 199.146H125.719C120.458 199.126 115.334 198.547 110.394 197.472H110.389C110.375 197.467 110.358 197.461 110.342 197.461L110.337 197.456C110.316 197.456 110.306 197.451 110.289 197.446H110.275C110.258 197.439 110.247 197.439 110.237 197.439C110.232 197.434 110.227 197.434 110.22 197.434C110.206 197.43 110.194 197.43 110.179 197.425C110.175 197.425 110.168 197.42 110.158 197.42C110.153 197.42 110.142 197.413 110.137 197.413C110.12 197.408 110.106 197.408 110.089 197.403H110.079C91.0383 193.164 74.7977 181.501 64.5487 165.608C70.9751 175.565 79.7475 183.86 90.09 189.71V180C97.1348 182.259 104.644 183.481 112.444 183.481C129.79 183.481 145.719 177.44 158.256 167.35C169.235 166.335 179.02 161.211 186.067 153.533C180.879 155.735 175.176 156.955 169.189 156.955H168.794C177.014 147.025 182.659 134.892 184.706 121.569L191.395 122.565L185.318 116.361C185.476 114.381 185.56 112.386 185.56 110.368C185.56 109.979 185.555 109.589 185.55 109.2L188.24 103.607L185.359 104.923C184.439 92.4066 180.362 80.7696 173.932 70.7963C189.377 84.1969 199.146 103.976 199.146 126.034C199.146 164.049 170.136 195.287 133.048 198.814C133.012 198.819 132.969 198.826 132.933 198.826C132.891 198.831 132.855 198.836 132.817 198.84H132.759C132.738 198.845 132.722 198.845 132.702 198.852H132.643C132.622 198.857 132.607 198.857 132.59 198.857H132.585C132.564 198.862 132.549 198.862 132.528 198.862C132.507 198.867 132.49 198.867 132.469 198.867C132.449 198.873 132.433 198.873 132.412 198.873C132.39 198.878 132.375 198.878 132.359 198.878H132.349C132.333 198.878 132.316 198.883 132.302 198.883H132.29C132.275 198.888 132.259 198.888 132.243 198.888H132.233C132.216 198.888 132.202 198.893 132.185 198.893H132.175C132.159 198.893 132.142 198.893 132.128 198.9H132.116C132.101 198.9 132.085 198.904 132.069 198.904H132.011C132.006 198.909 132.006 198.909 132.001 198.909C131.985 198.909 131.969 198.909 131.954 198.914H131.885C131.869 198.919 131.854 198.919 131.837 198.919C131.832 198.919 131.832 198.919 131.827 198.926H131.764C131.754 198.926 131.737 198.931 131.722 198.931H131.711C131.696 198.931 131.68 198.936 131.663 198.936H131.649C131.632 198.936 131.622 198.936 131.606 198.941H131.549C131.542 198.941 131.537 198.941 131.532 198.947H131.49C131.485 198.947 131.48 198.947 131.475 198.952H131.416C131.401 198.952 131.389 198.957 131.375 198.957H131.358C131.344 198.957 131.332 198.962 131.316 198.962H131.258C131.253 198.962 131.248 198.967 131.243 198.967H131.201C131.196 198.967 131.189 198.973 131.184 198.973H131.127C131.111 198.973 131.096 198.978 131.084 198.978H131.027C131.022 198.978 131.01 198.978 131.01 198.983H130.969C130.963 198.983 130.958 198.983 130.948 198.988H130.889C130.879 198.988 130.863 198.988 130.853 198.993H130.796C130.784 199 130.779 199 130.774 199H130.717C130.7 199 130.691 199 130.679 199.005H130.658C130.648 199.005 130.631 199.005 130.622 199.009H130.543C130.526 199.009 130.517 199.014 130.505 199.014H130.484C130.469 199.014 130.458 199.014 130.448 199.019H130.362C130.353 199.026 130.343 199.026 130.331 199.026H130.269C130.264 199.026 130.252 199.026 130.248 199.031H130.19C130.174 199.031 130.169 199.036 130.157 199.036H130.074C130.064 199.036 130.052 199.041 130.036 199.041H130.016C130 199.041 129.99 199.041 129.979 199.047H129.895C129.883 199.047 129.874 199.047 129.864 199.052H129.805C129.8 199.052 129.79 199.057 129.778 199.057H129.664C129.652 199.062 129.642 199.062 129.631 199.062H129.604C129.595 199.062 129.583 199.062 129.573 199.067H129.452C129.447 199.067 129.437 199.073 129.426 199.073H129.311C129.299 199.078 129.289 199.078 129.278 199.078H129.221C129.211 199.083 129.204 199.083 129.194 199.083H129.078C129.068 199.083 129.056 199.088 129.047 199.088H128.989C128.978 199.088 128.968 199.093 128.963 199.093H128.81C128.804 199.1 128.794 199.1 128.784 199.1H128.694C128.689 199.105 128.673 199.105 128.668 199.105H128.52C128.51 199.105 128.499 199.11 128.494 199.11H128.399C128.394 199.11 128.377 199.11 128.372 199.114H128.198C128.189 199.114 128.177 199.121 128.162 199.121H127.967C127.951 199.126 127.941 199.126 127.931 199.126H127.788C127.772 199.131 127.767 199.131 127.751 199.131H127.493C127.483 199.136 127.472 199.136 127.457 199.136H127.262C127.245 199.141 127.235 199.141 127.224 199.141H126.845C126.835 199.141 126.819 199.141 126.809 199.147H126.034" fill="#154B25"/>
<path d="M191.395 122.565L184.706 121.569C184.971 119.853 185.176 118.11 185.318 116.361L191.395 122.565ZM185.55 109.2C185.528 107.763 185.466 106.34 185.359 104.923L188.24 103.607L185.55 109.2Z" fill="#B0C0C8"/>
<path d="M158.256 167.35C162.112 164.25 165.644 160.763 168.794 156.955H169.189C175.176 156.955 180.879 155.735 186.067 153.533C179.02 161.211 169.235 166.335 158.256 167.35Z" fill="#B0C0C8"/>
<path d="M90.09 189.71C79.7475 183.86 70.9751 175.565 64.5487 165.608C71.9168 172 80.5793 176.951 90.09 180V189.71Z" fill="#B0C0C8"/>
<path d="M90.09 77.2406V65.4412C104.324 57.8008 119.879 55.7369 128.577 55.7369C132.385 55.7369 134.881 56.1323 135.376 56.6278C137.199 58.4538 111.295 61.0198 90.09 77.2406Z" fill="#518153"/>
<path d="M56.0109 136.272C55.947 136.272 55.8862 136.241 55.8239 136.182C53.7846 134.139 53.445 98.1832 75.413 76.2186C79.864 71.7643 84.8876 68.2303 90.09 65.4413V77.2407C87.5782 79.1635 85.1287 81.2799 82.8023 83.6079C61.4939 104.913 58.0584 136.272 56.0109 136.272Z" fill="white"/>
</svg>
