<svg width="20" height="24" viewBox="0 0 20 24" fill="none" xmlns="http://www.w3.org/2000/svg">
<path d="M18.4753 3.82888C15.392 3.54781 13.0249 2.46879 11.2387 0.530074C10.5875 -0.175951 9.41383 -0.177431 8.76129 0.530074C6.97506 2.46879 4.60799 3.54781 1.52464 3.82888C0.655523 3.90834 0 4.58237 0 5.3968L0.00156416 13.489C0.422601 17.8033 3.36935 19.7215 5.96899 21.4137C7.02426 22.1008 8.02145 22.7497 8.80044 23.5151C9.45905 24.1618 10.541 24.1615 11.2 23.5151C11.9786 22.7497 12.9758 22.1008 14.0311 21.4137C16.6307 19.7215 19.5774 17.8033 20 13.4546V5.3968C19.9999 4.58232 19.3444 3.90834 18.4753 3.82888ZM13.5821 20.7958C12.4924 21.5049 11.4635 22.1747 10.6292 22.9946C10.2941 23.3235 9.70549 23.3235 9.37114 22.9946C8.53644 22.1747 7.50751 21.5049 6.41783 20.7958C3.84181 19.1187 1.17753 17.3846 0.792522 13.4546V5.3968C0.792522 4.9707 1.14004 4.61752 1.60048 4.57559C4.89511 4.27513 7.43283 3.11316 9.35878 1.02303C9.69444 0.658481 10.3062 0.659245 10.6412 1.02303C12.5671 3.11316 15.1048 4.27513 18.3995 4.57559C18.86 4.61752 19.2074 4.97075 19.2074 5.3968L19.209 13.4202C18.8224 17.3846 16.1581 19.1187 13.5821 20.7958Z" fill="#26993F"/>
<path d="M10.0029 5.57959C6.90294 5.57959 4.38095 8.05991 4.38095 11.1084C4.38095 14.2043 6.92347 16.6434 10.0029 16.6434C13.1062 16.6434 15.619 14.1741 15.619 11.1084C15.619 8.05991 13.0996 5.57959 10.0029 5.57959ZM7.33157 15.109C7.89814 14.1631 8.89247 13.583 10.0029 13.583C11.1104 13.583 12.1028 14.1634 12.669 15.1098C11.8857 15.6234 10.9716 15.8955 10.0029 15.8955C9.03644 15.8955 8.12048 15.6234 7.33157 15.109ZM13.2712 14.6424C12.561 13.5187 11.3496 12.8352 10.0029 12.8352C8.65289 12.8352 7.43941 13.5187 6.72877 14.6425C5.71647 13.7362 5.13971 12.473 5.13971 11.1084C5.13971 8.47219 7.32123 6.32749 10.0029 6.32749C12.6813 6.32749 14.8602 8.47219 14.8602 11.1084C14.8602 12.4724 14.284 13.7351 13.2712 14.6424Z" fill="#26993F"/>
<path d="M10.5714 9.19092C9.46867 9.19092 8.57144 9.99259 8.57144 10.9782C8.57144 11.9637 9.46867 12.7654 10.5714 12.7654C11.6742 12.7654 12.5714 11.9637 12.5714 10.9782C12.5714 9.99259 11.6742 9.19092 10.5714 9.19092ZM10.5714 12.0233C9.9264 12.0233 9.40179 11.5545 9.40179 10.9782C9.40179 10.4018 9.9264 9.93296 10.5714 9.93296C11.2165 9.93296 11.7411 10.4018 11.7411 10.9782C11.7411 11.5545 11.2165 12.0233 10.5714 12.0233Z" fill="#26993F"/>
</svg>
