<svg width="21" height="21" viewBox="0 0 21 21" fill="none" xmlns="http://www.w3.org/2000/svg">
<path d="M10.2501 8.50008C9.41732 8.49347 8.60524 8.24008 7.91651 7.77195C7.22779 7.30382 6.69334 6.64196 6.38077 5.87009C6.06819 5.09821 5.99153 4.25098 6.16046 3.43553C6.3294 2.62008 6.73635 1.87304 7.32985 1.28888C7.92335 0.704712 8.67675 0.30966 9.49478 0.153677C10.3128 -0.00230634 11.1587 0.0877858 11.9255 0.412561C12.6924 0.737335 13.3456 1.28221 13.8028 1.97827C14.26 2.67433 14.5004 3.49033 14.4938 4.32307C14.485 5.43973 14.0329 6.50714 13.237 7.29049C12.4412 8.07383 11.3667 8.50893 10.2501 8.50008ZM10.3085 1.13189C9.68393 1.12693 9.07193 1.3073 8.54988 1.65016C8.02783 1.99303 7.61918 2.483 7.3756 3.05811C7.13202 3.63323 7.06445 4.26766 7.18144 4.88118C7.29842 5.4947 7.59471 6.05975 8.03284 6.50488C8.47096 6.95 9.03124 7.25522 9.64283 7.38192C10.2544 7.50862 10.8898 7.45112 11.4687 7.21669C12.0477 6.98226 12.544 6.58142 12.8951 6.06488C13.2462 5.54833 13.4363 4.93927 13.4412 4.31472C13.4479 3.47722 13.1216 2.67138 12.534 2.07449C11.9465 1.47759 11.146 1.13853 10.3085 1.13189ZM20.1579 20.1579L19.1053 20.1496L19.1095 19.6233C19.1283 17.2504 18.2037 14.9672 16.5391 13.276C14.8745 11.5848 12.6063 10.6241 10.2334 10.6053C7.86045 10.5865 5.57725 11.5111 3.88604 13.1757C2.19483 14.8403 1.23415 17.1085 1.21534 19.4814L1.21116 20.0077L0.158566 19.9994L0.162739 19.4731C0.183767 16.821 1.25747 14.2859 3.14764 12.4255C5.03782 10.565 7.58963 9.53165 10.2417 9.55267C12.8938 9.5737 15.4289 10.6474 17.2893 12.5376C19.1498 14.4278 20.1831 16.9796 20.1621 19.6316L20.1579 20.1579Z" fill="white"/>
</svg>
