<svg width="20" height="20" viewBox="0 0 20 20" fill="none" xmlns="http://www.w3.org/2000/svg">
<path d="M14.9258 20C14.5997 19.9999 14.2787 19.917 13.9912 19.7585L10.0001 17.5447L6.01029 19.7579C5.36345 20.1133 4.55268 20.0653 3.95714 19.6446C3.34538 19.2101 3.02962 18.45 3.15198 17.7072L3.93355 12.8957L0.560771 9.42506C0.0424715 8.89341 -0.132948 8.12237 0.1035 7.413C0.338769 6.71001 0.934018 6.20449 1.65751 6.0939L6.24556 5.39122L8.23827 1.12801C8.55933 0.442635 9.25099 0 10.0001 0C10.7499 0 11.4412 0.442939 11.7614 1.12801L13.7547 5.39122L18.3422 6.09421C19.0651 6.20449 19.6609 6.7094 19.8965 7.41209C20.0127 7.75785 20.0315 8.13046 19.9507 8.48678C19.8698 8.84309 19.6927 9.16851 19.4398 9.42536L16.0658 12.8957L16.8483 17.7078C16.9695 18.4506 16.6537 19.2107 16.0437 19.6439C15.7145 19.8763 15.3248 20.0004 14.9258 20ZM10.0001 16.2469C10.0962 16.2469 10.1924 16.2712 10.2796 16.3192L14.5487 18.6873C14.678 18.7568 14.823 18.7893 14.9687 18.7813C15.1143 18.7733 15.2552 18.7251 15.3765 18.6417C15.6127 18.4743 15.7315 18.193 15.6852 17.909L14.8526 12.7875C14.8372 12.6919 14.8441 12.5939 14.8728 12.5017C14.9015 12.4094 14.9512 12.3255 15.0177 12.2571L18.6069 8.56501C18.7025 8.46854 18.7696 8.34614 18.8005 8.21199C18.8313 8.07784 18.8246 7.93742 18.7812 7.80703C18.6904 7.53634 18.4557 7.33978 18.1691 7.29604L13.2724 6.54565C13.1772 6.53112 13.0869 6.49279 13.0094 6.434C12.9319 6.37522 12.8695 6.29778 12.8278 6.20844L10.6989 1.6554C10.5739 1.38775 10.2997 1.2152 10.0001 1.2152C9.7006 1.2152 9.42612 1.38806 9.30023 1.6557L7.17248 6.20844C7.13073 6.29778 7.06838 6.37522 6.99087 6.434C6.91337 6.49279 6.82308 6.53112 6.72789 6.54565L1.83087 7.29604C1.54843 7.33948 1.30844 7.54029 1.21852 7.80855C1.13008 8.07376 1.1973 8.36359 1.39335 8.5647L4.98195 12.2571C5.11697 12.3959 5.1783 12.5934 5.14705 12.7875L4.31505 17.9086C4.26847 18.193 4.38729 18.4734 4.6255 18.6426C4.86254 18.81 5.19245 18.8301 5.45366 18.6867L9.72094 16.3192C9.80791 16.2712 9.90402 16.2469 10.0001 16.2469Z" fill="#26993F"/>
</svg>
