<svg width="30" height="30" viewBox="0 0 30 30" fill="none" xmlns="http://www.w3.org/2000/svg">
<path fill-rule="evenodd" clip-rule="evenodd" d="M1.59519 8.21179L14.1309 0.254012C14.6645 -0.0846706 15.3356 -0.0846706 15.8691 0.254012L28.4048 8.21178C29.3957 8.84078 30 9.96009 30 11.1663V26.5374C30 28.4497 28.5076 30 26.6667 30L3.33333 30C1.49238 30 0 28.4498 0 26.5374L2.78833e-05 11.1663C2.96666e-05 9.96009 0.604347 8.84078 1.59519 8.21179ZM11.6668 16.1506C10.7463 16.1506 10.0001 16.9257 10.0001 17.8819V23.0757C10.0001 24.0319 10.7463 24.807 11.6668 24.807H18.3334C19.2539 24.807 20.0001 24.0319 20.0001 23.0757V17.8819C20.0001 16.9257 19.2539 16.1506 18.3334 16.1506H11.6668Z" fill="#042D0D"/>
</svg>
