<svg width="30" height="30" viewBox="0 0 30 30" fill="none" xmlns="http://www.w3.org/2000/svg">
<path d="M30 13.6514H0V16.3477H30V13.6514Z" fill="white"/>
<path fill-rule="evenodd" clip-rule="evenodd" d="M0 8.07827V3.90516C0 2.82917 0.43843 1.85275 1.14562 1.14562C1.85281 0.43843 2.82924 0 3.90516 0H8.82308V1.61782H3.90516C3.27576 1.61782 2.70406 1.87486 2.28949 2.28942C1.87492 2.70399 1.61789 3.27576 1.61789 3.90509V8.0782L0 8.07827ZM21.1769 0H26.0948C27.1708 0 28.1473 0.43843 28.8544 1.14562C29.5616 1.85281 30 2.82917 30 3.90516V8.07827H28.3822V3.90516C28.3822 3.27576 28.1251 2.70406 27.7106 2.28949C27.296 1.87492 26.7242 1.61789 26.0949 1.61789H21.177V0H21.1769ZM30 21.9217V26.0948C30 27.1708 29.5616 28.1472 28.8544 28.8544C28.1472 29.5616 27.1708 30 26.0948 30H21.1769V28.3822H26.0948C26.7242 28.3822 27.2959 28.1251 27.7105 27.7106C28.1251 27.296 28.3821 26.7242 28.3821 26.0949V21.9218H30V21.9217ZM8.82308 30H3.90516C2.82917 30 1.85275 29.5616 1.14562 28.8544C0.43843 28.1473 0 27.1708 0 26.0948V21.9217H1.61782V26.0948C1.61782 26.7242 1.87486 27.2959 2.28942 27.7105C2.70399 28.1251 3.27576 28.3821 3.90509 28.3821H8.82301V30H8.82308Z" fill="white"/>
</svg>
