<svg width="30" height="31" viewBox="0 0 30 31" fill="none" xmlns="http://www.w3.org/2000/svg">
<mask id="mask0_290_72" style="mask-type:alpha" maskUnits="userSpaceOnUse" x="0" y="0" width="30" height="31">
<rect y="0.833984" width="30" height="30" fill="#D9D9D9"/>
</mask>
<g mask="url(#mask0_290_72)">
<path d="M11.5625 28.334L11.0625 24.334C10.7917 24.2298 10.5365 24.1048 10.2969 23.959C10.0573 23.8132 9.82292 23.6569 9.59375 23.4902L5.875 25.0527L2.4375 19.1152L5.65625 16.6777C5.63542 16.5319 5.625 16.3913 5.625 16.2559V15.4121C5.625 15.2767 5.63542 15.1361 5.65625 14.9902L2.4375 12.5527L5.875 6.61523L9.59375 8.17773C9.82292 8.01107 10.0625 7.85482 10.3125 7.70898C10.5625 7.56315 10.8125 7.43815 11.0625 7.33398L11.5625 3.33398H18.4375L18.9375 7.33398C19.2083 7.43815 19.4635 7.56315 19.7031 7.70898C19.9427 7.85482 20.1771 8.01107 20.4062 8.17773L24.125 6.61523L27.5625 12.5527L24.3437 14.9902C24.3646 15.1361 24.375 15.2767 24.375 15.4121V16.2559C24.375 16.3913 24.3542 16.5319 24.3125 16.6777L27.5313 19.1152L24.0938 25.0527L20.4062 23.4902C20.1771 23.6569 19.9375 23.8132 19.6875 23.959C19.4375 24.1048 19.1875 24.2298 18.9375 24.334L18.4375 28.334H11.5625ZM13.75 25.834H16.2188L16.6562 22.5215C17.3021 22.3548 17.901 22.11 18.4531 21.7871C19.0052 21.4642 19.5104 21.0736 19.9688 20.6152L23.0625 21.8965L24.2813 19.7715L21.5937 17.7402C21.6979 17.4486 21.7708 17.1413 21.8125 16.8184C21.8542 16.4954 21.875 16.1673 21.875 15.834C21.875 15.5007 21.8542 15.1725 21.8125 14.8496C21.7708 14.5267 21.6979 14.2194 21.5937 13.9277L24.2813 11.8965L23.0625 9.77148L19.9688 11.084C19.5104 10.6048 19.0052 10.2038 18.4531 9.88086C17.901 9.55794 17.3021 9.31315 16.6562 9.14648L16.25 5.83398H13.7812L13.3438 9.14648C12.6979 9.31315 12.099 9.55794 11.5469 9.88086C10.9948 10.2038 10.4896 10.5944 10.0313 11.0527L6.9375 9.77148L5.71875 11.8965L8.40625 13.8965C8.30208 14.209 8.22917 14.5215 8.1875 14.834C8.14583 15.1465 8.125 15.4798 8.125 15.834C8.125 16.1673 8.14583 16.4902 8.1875 16.8027C8.22917 17.1152 8.30208 17.4277 8.40625 17.7402L5.71875 19.7715L6.9375 21.8965L10.0313 20.584C10.4896 21.0632 10.9948 21.4642 11.5469 21.7871C12.099 22.11 12.6979 22.3548 13.3438 22.5215L13.75 25.834ZM15.0625 20.209C16.2708 20.209 17.3021 19.7819 18.1562 18.9277C19.0104 18.0736 19.4375 17.0423 19.4375 15.834C19.4375 14.6257 19.0104 13.5944 18.1562 12.7402C17.3021 11.8861 16.2708 11.459 15.0625 11.459C13.8333 11.459 12.7969 11.8861 11.9531 12.7402C11.1094 13.5944 10.6875 14.6257 10.6875 15.834C10.6875 17.0423 11.1094 18.0736 11.9531 18.9277C12.7969 19.7819 13.8333 20.209 15.0625 20.209Z" fill="#042D0D"/>
</g>
</svg>
